<svg width="76" height="76" viewBox="0 0 76 76" fill="none" xmlns="http://www.w3.org/2000/svg">
<path d="M38 76C58.9868 76 76 58.9868 76 38C76 17.0132 58.9868 0 38 0C17.0132 0 0 17.0132 0 38C0 58.9868 17.0132 76 38 76Z" fill="white"/>
<path d="M38 70.0625C55.7076 70.0625 70.0625 55.7076 70.0625 38C70.0625 20.2924 55.7076 5.9375 38 5.9375C20.2924 5.9375 5.9375 20.2924 5.9375 38C5.9375 55.7076 20.2924 70.0625 38 70.0625Z" fill="#69B53F"/>
<path d="M17.2188 18.7031V45.4219C17.2484 51.9828 22.5328 57.2672 29.0938 57.2969H46.9062C53.4672 57.2672 58.7516 51.9828 58.7812 45.4219V30.5781C58.7516 25.6797 54.7734 21.7016 49.875 21.6719C47.6781 21.6719 45.5703 22.5031 43.9375 24.0172C42.3047 22.5328 40.1969 21.7016 38 21.6719C33.1016 21.7016 29.1234 25.6797 29.0938 30.5781V45.4219H35.0312V30.5781C35.0312 28.9453 36.3672 27.6094 38 27.6094C39.6328 27.6094 40.9688 28.9453 40.9688 30.5781V45.4219H46.9062V30.5781C46.9062 28.9453 48.2422 27.6094 49.875 27.6094C51.5078 27.6094 52.8438 28.9453 52.8438 30.5781V45.4219C52.8734 48.6875 50.2313 51.3297 46.9953 51.3594C46.9656 51.3594 46.9359 51.3594 46.9062 51.3594H29.0938C25.8281 51.3891 23.1859 48.7469 23.1562 45.5109C23.1562 45.4813 23.1562 45.4516 23.1562 45.4219V18.7031H17.2188Z" fill="#F8F8F8"/>
</svg>
