<svg width="76" height="76" viewBox="0 0 76 76" fill="none" xmlns="http://www.w3.org/2000/svg">
<path d="M76 38.0004C76 58.9863 58.987 76 38.0001 76C17.0128 76 0 58.9863 0 38.0004C0 17.0133 17.013 0 38.0001 0C58.9872 0 76 17.0133 76 38.0004Z" fill="#DD4814"/>
<path d="M12.1614 32.9259C9.35804 32.9259 7.08691 35.1973 7.08691 38.0004C7.08691 40.8022 9.35804 43.0734 12.1614 43.0734C14.9631 43.0734 17.2343 40.8022 17.2343 38.0004C17.2343 35.1973 14.9631 32.9259 12.1614 32.9259ZM48.385 55.9847C45.9584 57.3863 45.1264 60.4875 46.5281 62.9128C47.9281 65.3395 51.0293 66.1713 53.4559 64.7698C55.8823 63.3697 56.7144 60.2685 55.3128 57.8417C53.9128 55.4165 50.8099 54.5847 48.385 55.9847ZM23.1814 38.0004C23.1814 32.9867 25.6717 28.5572 29.4823 25.8749L25.7732 19.6625C21.3344 22.6296 18.0317 27.1637 16.6592 32.4739C18.2607 33.7807 19.2858 35.7702 19.2858 38.0002C19.2858 40.2289 18.2607 42.2183 16.6592 43.5252C18.0299 48.837 21.3326 53.3713 25.7732 56.3384L29.4823 50.1244C25.6717 47.4437 23.1814 43.0144 23.1814 38.0004ZM38.0002 23.1799C45.7419 23.1799 52.0935 29.1158 52.7602 36.6858L59.9893 36.5792C59.6336 30.9906 57.1923 25.9734 53.4409 22.2842C51.5119 23.013 49.2836 22.9015 47.3577 21.7913C45.4284 20.6779 44.2188 18.7998 43.8881 16.761C42.0131 16.2435 40.0398 15.9602 37.9997 15.9602C34.4926 15.9602 31.1767 16.784 28.2326 18.2412L31.7579 24.5585C33.6543 23.6759 35.7699 23.1799 38.0002 23.1799ZM38.0002 52.8194C35.7699 52.8194 33.6543 52.3232 31.7581 51.4408L28.2329 57.7579C31.177 59.2169 34.4928 60.0409 38.0002 60.0409C40.0403 60.0409 42.0136 59.7573 43.8883 59.2383C44.219 57.1995 45.4291 55.3232 47.3579 54.2078C49.2852 53.0958 51.5121 52.9863 53.4412 53.7151C57.1925 50.0259 59.6339 45.0088 59.9896 39.4201L52.7586 39.3135C52.0935 46.8856 45.7421 52.8194 38.0002 52.8194ZM48.3832 20.013C50.8099 21.4144 53.9112 20.5843 55.3112 18.1577C56.7128 15.731 55.8828 12.6296 53.4559 11.2278C51.0293 9.82776 47.9281 10.6596 46.5261 13.0863C45.1264 15.5116 45.9582 18.613 48.3832 20.013Z" fill="white"/>
</svg>
