<svg width="76" height="76" viewBox="0 0 76 76" fill="none" xmlns="http://www.w3.org/2000/svg">
<path d="M45.4194 40.1532C43.8519 40.1707 45.716 40.8021 47.7624 41.0551C48.3277 40.7005 48.8406 40.3417 49.2977 39.9927C48.0233 40.2436 46.7261 40.2492 45.4194 40.1532Z" fill="#A80030"/>
<path d="M53.833 38.4685C54.7664 37.4334 55.4468 36.3003 55.6866 35.1285C55.4773 35.9639 54.9129 36.685 54.3817 37.4461C51.4516 38.9282 54.106 36.5659 54.3799 35.6681C51.2291 38.8539 53.9473 37.5785 53.833 38.4685Z" fill="#A80030"/>
<path d="M56.9383 31.9764C57.1276 29.7086 56.3827 30.4255 56.1323 31.291C56.4245 31.4129 56.6557 32.8895 56.9383 31.9764Z" fill="#A80030"/>
<path d="M39.4756 0.980377C40.3121 1.10091 41.283 1.19342 41.1469 1.3539C42.062 1.19272 42.2696 1.04415 39.4756 0.980377Z" fill="#A80030"/>
<path d="M41.147 1.35391L40.5555 1.45202L41.106 1.41278L41.147 1.35391Z" fill="#A80030"/>
<path d="M67.2324 32.8362C67.3258 34.8727 66.491 35.8608 65.7382 37.61L64.3835 38.1538C63.2748 39.8834 64.4908 39.252 63.697 40.6276C61.9663 41.8638 58.4448 44.496 57.3178 44.7364C56.4952 44.7216 57.8752 43.9564 58.0557 43.6564C55.7389 44.9347 56.1969 45.5752 52.6535 46.3517L52.5497 46.1667C43.8109 49.4695 31.6719 42.9241 31.8315 33.9932C31.7382 34.5602 31.5663 34.4186 31.3727 34.6478C30.9217 30.0527 34.014 25.4373 39.2296 23.5529C44.3308 21.5241 50.3114 22.3566 53.9655 25.0925C51.9583 22.9803 47.9631 20.7413 43.2282 20.9508C38.5902 21.0097 34.2513 23.3777 32.8033 25.9482C30.4271 27.15 30.1515 30.5811 29.116 31.209C27.7229 39.4342 31.7364 42.9879 38.5256 47.1681C39.5942 47.7469 38.8266 47.8345 38.9714 48.2753C36.7156 47.4267 34.65 46.1456 32.9516 44.5773C33.8527 45.6369 34.8253 46.667 36.0823 47.4764C33.9556 46.8976 31.1145 43.3362 30.2849 43.1911C33.9512 48.4646 45.1595 52.4394 51.0284 50.4674C48.3129 50.548 44.8629 50.5123 41.8116 49.6061C40.5302 49.0763 38.7873 47.9789 39.0987 47.7736C47.1083 50.1773 55.3821 49.5942 62.3126 45.1309C64.0755 44.0279 66.0016 42.1511 66.5581 42.1252C65.7198 43.1379 66.7012 42.6123 66.0574 43.5065C67.8143 41.2303 65.2942 42.58 67.8736 39.5757L68.8261 40.6297C68.472 38.7404 71.7466 36.446 71.4143 33.4578C72.1653 32.544 72.2526 34.441 71.4553 36.5434C72.5614 34.2112 71.7466 33.8363 72.031 31.9119C72.3381 32.5587 72.7411 33.2462 72.9478 33.9288C72.2273 31.675 73.6875 30.1333 74.0487 28.8235C73.6927 28.6967 72.9365 29.82 72.7637 27.1577C72.789 26.0014 73.1641 26.5515 73.3089 26.267C73.0263 26.1367 72.2848 25.2502 71.8339 23.5501C72.161 23.1506 72.7079 24.5858 73.1528 24.6447C72.8667 23.2929 72.3738 22.262 72.3538 21.2248C71.054 19.0426 71.8941 21.5157 70.8394 20.2879C69.4559 16.8211 71.9874 19.4834 72.1584 17.908C74.2554 20.3489 75.4513 24.1317 76 25.6987C75.5813 23.7883 74.9044 21.9375 74.0783 20.147C74.7151 20.3622 73.0525 16.2163 74.9061 18.962C72.926 13.109 66.4316 7.64002 60.4572 5.07373C61.1882 5.61123 62.1111 6.2861 61.7796 6.39191C58.8085 4.97071 59.3311 4.85999 58.9054 4.25941C56.4847 3.46822 56.326 4.32318 54.7227 4.26081C50.1605 2.31682 49.2812 2.52355 45.0828 1.30558L45.2738 2.02249C42.2513 1.21378 41.7523 2.32943 38.4855 2.02529C38.2866 1.90055 39.5323 1.57398 40.5572 1.45415C37.635 1.7639 37.7719 0.991625 34.9125 1.53964C35.6173 1.14229 36.3623 0.879498 37.1142 0.541718C34.7311 0.658049 31.425 1.65597 32.4456 0.748451C28.5586 2.14162 21.6552 4.09753 17.7812 7.01562L17.6591 6.36178C15.884 8.07381 9.91825 11.4747 9.44284 13.692L8.96831 13.781C8.04453 15.0376 7.447 16.4616 6.71426 17.7545C5.50611 19.4084 4.94347 18.3908 5.11532 18.6501C2.73915 22.5206 1.55891 25.773 0.539185 28.4402C1.26582 29.3127 0.556631 33.6926 0.831408 37.198C-0.361911 54.5103 15.9555 71.3194 33.7916 75.2004C36.4059 75.9516 40.2938 75.9229 43.6007 76C39.6989 75.1037 39.1947 75.5249 35.394 74.4604C32.6524 73.4232 32.0513 72.2389 30.1096 70.8849L30.8781 71.9761C27.0696 70.8933 28.6633 70.6362 25.5649 69.8478L26.3857 68.9865C25.1514 68.9115 23.1163 67.3151 22.5598 66.4314L21.2094 66.4742C19.5869 64.8659 18.7225 63.7067 18.7853 62.809L18.3491 63.4334C17.8545 62.7516 12.3799 57.4017 15.2201 58.647C14.6924 58.2595 13.9911 58.0163 13.2304 56.9063L13.8087 56.3751C12.4418 54.9623 11.293 53.1514 11.3802 52.5481C12.1095 53.3393 12.6154 53.4871 13.1161 53.6224C9.66441 46.742 9.47076 53.2432 6.85645 46.6187L7.40949 46.5829C6.98555 46.07 6.72822 45.5128 6.38714 44.9662L6.6279 43.039C4.14269 40.7306 5.93267 33.2238 6.29119 29.1066C6.5398 27.4324 8.36554 25.6503 9.75426 22.8556L8.90812 22.7385C10.5254 20.4722 18.1424 13.6367 21.67 13.9885C23.3788 12.2638 21.3307 13.9822 20.9966 13.5477C24.7501 10.4271 25.9304 11.343 28.4635 10.7817C31.1956 9.4789 26.1188 11.2897 27.4142 10.2848C32.1368 9.31561 30.7612 8.08152 36.9223 7.58956C37.5722 7.8867 35.4141 8.04858 34.8724 8.43402C38.8074 6.88737 47.3246 7.23917 52.8568 9.29249C59.2761 11.7025 66.4883 18.8267 66.7727 25.5298L67.0964 25.5999C66.9324 28.2643 67.604 31.3457 66.4404 34.1761L67.2324 32.8362Z" fill="#A80030"/>
<path d="M28.31 41.882L28.0902 42.765C29.1204 43.8891 29.9378 45.1071 31.2532 45.9858C30.3067 44.5016 29.6037 43.8884 28.31 41.882Z" fill="#A80030"/>
<path d="M30.7454 41.8049C30.2002 41.3207 29.8775 40.7376 29.5164 40.1567C29.8618 41.1777 30.5692 42.0551 31.2278 42.9472L30.7454 41.8049Z" fill="#A80030"/>
<path d="M73.841 34.2798L73.6107 34.7438C73.1885 37.1531 72.277 39.5372 70.8795 41.7475C72.4235 39.4152 73.4223 36.8644 73.841 34.2798Z" fill="#A80030"/>
<path d="M39.7852 0.376324C40.845 0.0644727 42.3908 0.205332 43.5152 0C42.0497 0.0988114 40.5912 0.157678 39.151 0.306946L39.7852 0.376324Z" fill="#A80030"/>
<path d="M2.57693 16.2717C2.82117 18.0881 0.875926 18.7931 3.00785 17.5955C4.15057 15.5274 2.56123 17.0243 2.57693 16.2717Z" fill="#A80030"/>
<path d="M0.0716245 24.6783C0.562734 23.4674 0.65171 22.7399 0.839256 22.0392C-0.518056 23.433 0.214683 23.7302 0.0716245 24.6783Z" fill="#A80030"/>
</svg>
